<svg id="Layer_1" data-name="Layer 1" xmlns="http://www.w3.org/2000/svg" viewBox="0 0 300 80"><defs><style>.cls-1{fill:#122d88;}</style></defs><title>EDGE SVG Logo</title><polygon class="cls-1" points="207.31 12.64 207.31 25.89 207.62 25.89 244.35 25.89 244.35 12.64 207.31 12.64"/><polygon class="cls-1" points="207.31 67.36 244.35 67.36 244.35 54.54 222.41 54.54 222.41 47.04 244.35 47.04 244.35 33.84 207.31 33.84 207.31 67.36"/><polygon class="cls-1" points="55.65 12.64 55.65 25.89 55.95 25.89 92.69 25.89 92.69 12.64 55.65 12.64"/><polygon class="cls-1" points="55.65 67.36 92.69 67.36 92.69 54.54 70.75 54.54 70.75 47.04 92.69 47.04 92.69 33.84 55.65 33.84 55.65 67.36"/><path class="cls-1" d="M170.62,14a25.81,25.81,0,0,0-9.12,4.91,25.39,25.39,0,0,0-7.09,9.33,28.85,28.85,0,0,0-2.64,12.18c0,6.94,1.61,13.38,5.38,17.68a26.56,26.56,0,0,0,11.41,7.64c3.66,1.35,11.17,1.59,16.17,1.59H199V33.89H183.94v21a25.78,25.78,0,0,1-6.27-.7,13.31,13.31,0,0,1-5.2-2.65,13,13,0,0,1-3.71-5,15.46,15.46,0,0,1-1.32-6.25c0-4.8,1.3-8,3.62-10.19a14.25,14.25,0,0,1,6.65-3.55,26.85,26.85,0,0,1,6.23-.66H199V12.64l-18.15.05A37.56,37.56,0,0,0,170.62,14Z"/><path class="cls-1" d="M129.37,14a25.81,25.81,0,0,1,9.12,4.91,25.39,25.39,0,0,1,7.09,9.33,28.85,28.85,0,0,1,2.64,12.18c0,6.94-1.61,13.38-5.38,17.68a26.56,26.56,0,0,1-11.41,7.64c-3.66,1.35-11.17,1.59-16.17,1.59H101V33.89h15.09v21a25.78,25.78,0,0,0,6.27-.7,13.31,13.31,0,0,0,5.2-2.65,13,13,0,0,0,3.71-5,15.46,15.46,0,0,0,1.32-6.25c0-4.8-1.3-8-3.62-10.19a14.25,14.25,0,0,0-6.65-3.55,26.85,26.85,0,0,0-6.23-.66H101V12.64l18.15.05A37.56,37.56,0,0,1,129.37,14Z"/></svg>